<svg width="200" height="148" viewBox="0 0 200 148" fill="none" xmlns="http://www.w3.org/2000/svg">
<path d="M33.9306 67.7273H91.704C98.688 67.7273 104.664 62.5073 105.601 55.5873C106.145 51.5739 104.929 47.5246 102.265 44.4753C99.6013 41.4273 95.752 39.6779 91.704 39.6779H44.432C39.9706 39.6779 35.8786 41.7259 33.204 45.2979C30.5293 48.8686 29.716 53.3713 30.9733 57.6526L33.9306 67.7273ZM114.459 107.225H52.9733C42.212 107.225 32.58 100.013 29.548 89.6873L25.088 74.4873C25.0666 74.4206 25.0466 74.3539 25.0293 74.2873L21.0053 60.5779C18.8199 53.1259 20.2346 45.2873 24.888 39.0713C29.544 32.8553 36.6653 29.2899 44.432 29.2899H91.704C98.7506 29.2899 105.451 32.3326 110.088 37.6406C114.724 42.9473 116.841 49.9953 115.895 56.9806C114.263 69.0299 103.863 78.1153 91.704 78.1153H36.9786L39.5159 86.7619C41.2573 92.6953 46.7906 96.8379 52.9733 96.8379H114.459C120.641 96.8379 126.175 92.6953 127.916 86.7619L140.973 42.2686C143.157 34.8259 148.82 28.8099 156.117 26.1779L172.397 20.3073C175.099 19.3393 178.072 20.7339 179.045 23.4326C180.019 26.1313 178.62 29.1059 175.921 30.0806L159.643 35.9486C155.448 37.4606 152.196 40.9179 150.94 45.1939L137.883 89.6873C134.852 100.013 125.22 107.225 114.459 107.225Z" fill="#1890FF"/>
<path d="M56.928 119.813C56.928 123.998 53.5347 127.392 49.3481 127.392C45.1614 127.392 41.7681 123.998 41.7681 119.813C41.7681 115.626 45.1614 112.233 49.3481 112.233C53.5347 112.233 56.928 115.626 56.928 119.813Z" fill="#33414B"/>
<path d="M126.197 119.813C126.197 123.998 122.804 127.392 118.617 127.392C114.432 127.392 111.039 123.998 111.039 119.813C111.039 115.626 114.432 112.233 118.617 112.233C122.804 112.233 126.197 115.626 126.197 119.813Z" fill="#33414B"/>
</svg>
